<?xml version="1.0" encoding="UTF-8" standalone="no"?>
<!-- Created with Inkscape (http://www.inkscape.org/) -->

<svg
   width="1200"
   height="630"
   viewBox="0 0 317.49999 166.6875"
   version="1.1"
   id="svg5"
   xml:space="preserve"
   sodipodi:docname="preview.svg"
   inkscape:version="1.2.2 (b0a8486541, 2022-12-01)"
   inkscape:export-filename="preview.png"
   inkscape:export-xdpi="96"
   inkscape:export-ydpi="96"
   xmlns:inkscape="http://www.inkscape.org/namespaces/inkscape"
   xmlns:sodipodi="http://sodipodi.sourceforge.net/DTD/sodipodi-0.dtd"
   xmlns="http://www.w3.org/2000/svg"
   xmlns:svg="http://www.w3.org/2000/svg"><sodipodi:namedview
     id="namedview7"
     pagecolor="#ffffff"
     bordercolor="#000000"
     borderopacity="0.25"
     inkscape:showpageshadow="2"
     inkscape:pageopacity="0.0"
     inkscape:pagecheckerboard="0"
     inkscape:deskcolor="#d1d1d1"
     inkscape:document-units="mm"
     showgrid="false"
     inkscape:zoom="0.72899897"
     inkscape:cx="589.16407"
     inkscape:cy="429.35589"
     inkscape:window-width="1680"
     inkscape:window-height="994"
     inkscape:window-x="0"
     inkscape:window-y="0"
     inkscape:window-maximized="1"
     inkscape:current-layer="g1767" /><defs
     id="defs2"><clipPath
       clipPathUnits="userSpaceOnUse"
       id="clipPath979"><rect
         style="fill:#4b3a9b;fill-opacity:1;stroke-width:29.5331;stroke-linecap:round;stroke-linejoin:round"
         id="rect981"
         width="431.79321"
         height="226.69144"
         x="-76.157578"
         y="1.9647872" /></clipPath></defs><g
     inkscape:label="Camada 1"
     inkscape:groupmode="layer"
     id="layer1"><g
       id="g1767"
       clip-path="url(#clipPath979)"
       transform="matrix(0.73530569,0,0,0.73530569,55.9991,-1.4447192)"><rect
         style="fill:#e0a9ac;fill-opacity:1;stroke-width:20.4321;stroke-linecap:round;stroke-linejoin:round"
         id="rect417"
         width="498.95639"
         height="255.7038"
         x="-104.86834"
         y="-11.322434" /><circle
         style="fill:#cc8a96;fill-opacity:1;stroke-width:27.0784;stroke-linecap:round;stroke-linejoin:round"
         id="circle977"
         cx="139.89438"
         cy="255.32021"
         r="266.43552" /><circle
         style="fill:#db9c9c;fill-opacity:1;stroke-width:20.3997;stroke-linecap:round;stroke-linejoin:round"
         id="path421"
         cx="141.30428"
         cy="244.72191"
         r="200.72057" /><g
         id="g363"
         transform="matrix(0.72641353,0,0,0.72641353,18.499577,-1.4711697)"><path
           style="fill:#9f6d4d;fill-opacity:1;stroke:none;stroke-width:9.10539;stroke-opacity:1"
           d="m 140.48054,341.43795 c 0,0 0.9488,29.69267 -0.43838,31.00228 -1.3872,1.30959 -7.05485,3.53076 -9.46553,3.53076 -2.41067,0 -18.00214,-0.33222 -20.39952,2.88803 -2.39734,3.22039 -4.06679,8.48153 -1.0689,9.2446 2.9979,0.76312 26.73742,-2.41519 27.64473,-1.2707 0.90734,1.14458 3.45635,4.79757 7.41676,4.60745 3.96038,-0.19023 8.91547,-3.83619 8.91547,-3.83619 0,0 29.98244,2.61288 29.10075,0.41863 -0.88168,-2.19411 -5.25294,-9.2478 -8.30451,-9.9451 -3.05165,-0.69727 -18.06716,-2.00432 -19.52647,-4.06647 -1.45931,-2.06205 -0.59002,-31.88235 -0.59002,-31.88235 z"
           id="path11608" /><path
           style="fill:#9f6d4d;fill-opacity:1;stroke:none;stroke-width:9.10539;stroke-opacity:1"
           d="m 192.76745,345.27723 c 0,0 0.9488,29.6927 -0.43841,31.00229 -1.38718,1.30956 -7.05482,3.53073 -9.46551,3.53073 -2.41066,0 -18.00213,-0.33219 -20.3995,2.88805 -2.39735,3.22042 -4.06679,8.48153 -1.0689,9.24463 2.9979,0.76312 26.73741,-2.41517 27.64471,-1.27071 0.90736,1.14459 3.45635,4.79758 7.41675,4.60745 3.96039,-0.19022 8.91549,-3.83618 8.91549,-3.83618 0,0 29.98244,2.61283 29.10075,0.41862 -0.88171,-2.1941 -5.25294,-9.2478 -8.30454,-9.94514 -3.05163,-0.69722 -18.06714,-2.00427 -19.52645,-4.06642 -1.4593,-2.06205 -0.59002,-31.88235 -0.59002,-31.88235 z"
           id="path11610" /><path
           style="fill:#656e7f;fill-opacity:1;stroke:none;stroke-width:9.10539;stroke-opacity:1"
           d="m 125.36801,314.94 c 0,0 5.84375,37.84585 16.88486,40.35598 11.04103,2.51013 30.39445,-14.0059 31.53574,-27.70344 1.14133,-13.6974 -48.4206,-12.65254 -48.4206,-12.65254 z"
           id="path11612" /><path
           style="fill:#656e7f;fill-opacity:1;stroke:none;stroke-width:9.10539;stroke-opacity:1"
           d="m 177.65493,318.77931 c 0,0 5.84373,37.84582 16.88485,40.35598 11.04103,2.51013 30.39445,-14.00596 31.53573,-27.70344 1.14136,-13.69746 -48.42058,-12.65254 -48.42058,-12.65254 z"
           id="path11614" /><path
           style="fill:#2d3252;fill-opacity:1;stroke:none;stroke-width:9.10539;stroke-opacity:1"
           d="m 286.79596,310.40717 c 0,0 60.12731,36.54051 72.70055,35.39273 12.57313,-1.14771 24.00475,-6.41347 24.00475,-6.41347 0,0 21.66181,-6.71702 21.90999,-17.35638 0.24788,-10.63931 -46.05072,-29.49789 -58.03964,-30.64277 -11.98883,-1.14491 -63.84777,-6.1851 -60.57565,19.01989 z"
           id="path11616" /><path
           style="fill:#72819c;fill-opacity:1;stroke:none;stroke-width:9.10539;stroke-opacity:1"
           d="m 42.409583,182.7069 c 0,0 -5.936728,21.72593 -4.081205,43.11793 1.855518,21.39204 14.978894,93.27669 121.098442,105.03164 106.11946,11.75486 134.00943,-12.74145 140.6437,-13.04813 6.63428,-0.30648 34.30915,5.25299 41.03008,0.60824 6.72099,-4.64471 -86.15005,-92.39075 -128.41004,-119.70322 -17.01193,-10.99474 -58.34079,8.95079 -89.4877,6.75534 -31.146818,-2.19544 -76.069634,-34.64576 -80.793277,-22.7618 z"
           id="path11618"
           sodipodi:nodetypes="cssssssc" /><path
           style="fill:#454868;fill-opacity:1;stroke:none;stroke-width:9.10539;stroke-opacity:1"
           d="m 39.568112,188.93297 c 3.76524,24.45339 52.051668,34.2908 72.808988,37.07857 20.75732,2.78784 103.63552,-17.53733 103.39745,-28.80845 -0.2594,-12.2827 -18.27341,-39.43385 -25.84113,-60.15515 C 182.36567,116.32656 174.99205,112.19308 169.6613,89.865749 166.51128,76.67238 167.92736,34.963013 130.3678,35.366944 92.808173,35.770825 89.324728,61.118772 82.615167,87.412981 75.90553,113.70716 64.135943,126.1159 64.135943,126.1159 c 0,0 -28.652474,36.28948 -24.567831,62.81707 z"
           id="path11620"
           sodipodi:nodetypes="ssssssscs" /><ellipse
           style="fill:#ececec;fill-opacity:1;stroke:none;stroke-width:9.58339;stroke-opacity:1"
           id="ellipse11622"
           cx="-87.666702"
           cy="79.874886"
           rx="9.9408064"
           ry="6.4349766"
           transform="scale(-1,1)" /><path
           style="fill:#1a1a22;fill-opacity:1;stroke:none;stroke-width:9.10539;stroke-opacity:1"
           d="m 93.124685,90.87528 c -1.524004,5.185143 -10.932181,0.866602 -15.249934,2.721793 -5.864368,2.51963 -13.78112,8.815987 -14.500729,7.078227 -0.719529,-1.737729 2.061815,-12.405339 6.214927,-16.011182 3.011166,-2.61435 10.824699,-5.922991 15.827453,-5.477349 3.991147,0.35582 8.771567,2.887706 7.708283,11.688511 z"
           id="path11624"
           sodipodi:nodetypes="cssssc" /><g
           id="g11630"
           transform="matrix(2.4184361,0,0,2.4184361,1311.3535,-407.35257)"><circle
             style="fill:#f5f5f5;fill-opacity:1;stroke:none;stroke-width:3.76499;stroke-opacity:1"
             id="circle11626"
             cx="-492.23737"
             cy="199.8755"
             r="4.0925393" /><circle
             style="fill:#0a0026;fill-opacity:1;stroke:#8b38a9;stroke-width:0.906814;stroke-dasharray:none;stroke-opacity:1"
             id="circle11628"
             cx="-492.23737"
             cy="199.8755"
             r="2.6479139" /></g><g
           id="g11640"
           transform="matrix(2.4184361,0,0,2.4184361,1317.5039,-407.35257)"><path
             style="fill:#848fa5;fill-opacity:1;stroke:none;stroke-width:3.76499;stroke-opacity:1"
             d="m -485.03591,234.51964 c -6.62945,7.39058 -13.27893,25.64061 0.21839,42.05709 13.4973,16.4165 69.92456,16.7314 86.32584,14.16093 16.40128,-2.57047 -16.65333,-29.43833 -31.18348,-39.29911 -14.53014,-9.86078 -31.40259,-41.43578 -55.36075,-16.91891 z"
             id="path11632"
             sodipodi:nodetypes="cszsc" /><path
             id="path11634"
             style="fill:#2d3252;fill-opacity:1;stroke:none;stroke-width:3.76499;stroke-opacity:1"
             d="m -402.91546,273.38745 c -1.3395,5.92447 -3.58068,13.19111 -7.17372,18.34875 4.76076,-0.20425 8.77959,-0.55672 11.59774,-0.99839 8.34342,-1.30761 3.87992,-8.90479 -4.42402,-17.35036 z" /><path
             id="path11636"
             style="fill:#2d3252;fill-opacity:1;stroke:none;stroke-width:3.76499;stroke-opacity:1"
             d="m -418.99871,259.28753 c -6.09814,13.78301 -13.35745,22.93596 -19.34714,28.81995 -1.0609,1.04217 -2.06338,1.96395 -3.01429,2.79879 5.46387,0.51652 10.92864,0.81675 16.11323,0.94413 5.29634,-6.06443 10.92009,-14.1067 15.89153,-24.54785 -3.13644,-2.78314 -6.45034,-5.51348 -9.64333,-8.01502 z" /><path
             id="path11638"
             style="fill:#2d3252;fill-opacity:1;stroke:none;stroke-width:3.76499;stroke-opacity:1"
             d="m -438.04923,244.18975 c -7.76192,16.84884 -17.05467,27.23846 -24.37836,33.4703 -4.2243,3.59453 -7.63544,5.73647 -9.82575,6.92878 4.52862,1.74171 9.77969,3.11319 15.37838,4.17597 0.75179,-0.59164 1.51875,-1.21642 2.29857,-1.87999 8.07657,-6.87248 17.86125,-17.85605 26.0966,-34.62372 -0.40837,-0.28342 -0.8115,-0.56224 -1.19528,-0.82269 -2.70018,-1.83246 -5.48176,-4.41576 -8.37416,-7.24865 z" /></g></g></g></g></svg>
