<?xml version="1.0" encoding="UTF-8" standalone="no"?>
<svg
   xml:space="preserve"
   width="1080"
   height="1080"
   viewBox="0 0 28.575 28.575"
   version="1.1"
   id="svg13"
   sodipodi:docname="icon.svg"
   inkscape:version="1.4 (e7c3feb100, 2024-10-09)"
   xmlns:inkscape="http://www.inkscape.org/namespaces/inkscape"
   xmlns:sodipodi="http://sodipodi.sourceforge.net/DTD/sodipodi-0.dtd"
   xmlns="http://www.w3.org/2000/svg"
   xmlns:svg="http://www.w3.org/2000/svg"><sodipodi:namedview
     id="namedview13"
     pagecolor="#ffffff"
     bordercolor="#000000"
     borderopacity="0.25"
     inkscape:showpageshadow="2"
     inkscape:pageopacity="0.0"
     inkscape:pagecheckerboard="0"
     inkscape:deskcolor="#d1d1d1"
     inkscape:zoom="0.38048988"
     inkscape:cx="1.3140954"
     inkscape:cy="646.53494"
     inkscape:window-width="1680"
     inkscape:window-height="996"
     inkscape:window-x="0"
     inkscape:window-y="0"
     inkscape:window-maximized="1"
     inkscape:current-layer="svg13" /><defs
     id="defs1"><clipPath
       id="a"
       clipPathUnits="userSpaceOnUse"><path
         fill="#b7e1a8"
         stroke-linecap="round"
         stroke-linejoin="round"
         stroke-miterlimit="21.6"
         stroke-width="315.701"
         d="M11.483 285.887v1.684h-.914v1.01H8.548v1.01h-2.02v1.011h-1.01v1.01h-1.01v1.01h-1.01v1.01H2.486v2.02h-1.01v2.021H.466v6.061h1.01v2.022h1.01v2.02h1.01v1.01h1.01v1.01h1.01v1.01h1.01v1.01h2.021v1.011h2.02v1.01h6.062v-1.01h2.02v-1.01h2.021v-1.01h1.01v-1.01h1.01v-1.01h1.011v-1.01h1.01v-2.021h1.01v-2.021h1.01v-4.09h2.743v-13.758z"
         id="path1" /></clipPath></defs><g
     id="g14"
     transform="translate(0,0.578)"><g
       id="g2"><path
         fill="#b7e1a8"
         d="m 11.257,1.154 v 1.01 H 9.236 v 1.011 h -2.02 v 1.01 h -1.01 v 1.01 h -1.01 v 1.01 H 4.184 v 1.011 h -1.01 v 2.02 h -1.01 v 2.02 h -1.01 v 6.062 h 1.01 v 2.02 h 1.01 v 2.022 h 1.01 v 1.01 h 1.01 v 1.01 h 1.01 v 1.01 h 1.01 v 1.01 h 2.02 v 1.01 h 2.021 v 1.01 h 6.061 v -1.01 h 2.022 V 25.4 h 2.02 v -1.01 h 1.01 v -1.01 h 1.01 v -1.01 h 1.01 V 21.36 H 25.4 v -2.021 h 1.01 v -2.02 h 1.01 V 11.257 H 26.41 V 9.237 H 25.4 V 7.215 H 24.39 V 6.205 H 23.38 V 5.195 H 22.37 V 4.185 H 21.36 V 3.174 h -2.021 v -1.01 h -2.021 v -1.01 h -5.051 z"
         id="path2" /></g><g
       id="g13"><g
         clip-path="url(#a)"
         transform="translate(0.688,-286.417)"
         id="g12"><path
           fill="#6a6794"
           d="m 15.875,286.416 v 0.53 h -1.058 v 0.528 h -1.059 v 0.53 h 0.001 -0.53 v 0.529 H 12.7 v 0.529 h -0.53 v 0.53 h -0.528 v 0.528 h -0.53 v 0.53 h -0.529 v 1.058 h -0.529 v 1.059 H 9.525 v 1.587 h -0.53 v 1.588 H 8.467 V 297 H 8.82 8.467 v 0.53 h -0.53 v 1.587 H 7.408 v 1.058 H 6.88 v 1.588 H 6.35 v 1.058 H 5.82 v 1.059 H 5.292 v 1.058 h -0.53 v 1.058 H 4.233 v 1.059 H 3.704 v 1.058 H 3.175 v 1.058 h -0.53 v 1.587 H 2.117 v 1.059 h -0.53 v 1.058 H 1.058 v 0.53 H 0.53 v 0.528 h 32.808 v -0.529 h -0.529 v -0.529 H 32.28 v -0.53 h -0.529 v -0.528 h -1.058 v -0.53 h -1.059 v -0.529 h -1.058 v -0.529 H 27.518 V 309.7 h -1.059 v -0.53 H 25.4 v -0.528 h -0.53 v -1.059 h -0.528 v -1.058 h -0.53 v -0.53 h -0.529 v -1.587 h -0.529 v -0.529 h -0.529 v -1.059 h -0.53 v -1.058 h -0.528 v -5.291 h 2.116 v -1.588 l 1.059,-1.059 v -2.645 h -0.53 v -1.059 h -0.529 v -1.058 h -0.529 v -0.53 h -0.529 v -0.528 h -0.53 v -0.53 h -1.587 v 0.001 h -0.001 0.001 v -0.53 H 18.52 v -0.529 h -2.116 z"
           id="path3" /><path
           fill="#788198"
           d="m 15.875,290.12 v 0.53 h -0.53 v 0.53 h -0.528 v 1.587 h 0.529 v 0.529 h 0.529 v 0.529 h 1.588 v -0.53 h 0.529 v -0.528 h 0.529 v -1.588 h -0.53 v -0.529 h -0.529 v -0.53 z"
           id="path4" /><path
           fill="#555274"
           d="m 20.108,295.941 v 0.53 h -0.529 v 0.528 h 2.646 v -0.529 h 1.058 v -0.529 H 20.637 Z M 19.05,297 v 2.646 h 0.53 v 1.059 h 0.528 v 0.528 h 1.059 v -3.704 h 0.529 V 297 h -2.117 z"
           id="path5" /><path
           fill="#a89985"
           d="m 23.812,293.824 v 0.53 h -2.645 v 0.529 h 2.116 v 0.529 h 1.059 v 0.53 H 25.4 v 0.528 h 1.058 V 297 h 0.53 v -1.588 h -0.53 v -0.53 h -0.529 v -0.528 H 25.4 v -0.53 h -1.058 z"
           id="path6" /><path
           fill="#e7cab4"
           d="m 22.225,292.237 v 0.53 h -0.53 v 1.588 h 2.118 v -0.53 h 1.058 v -0.53 h -0.53 v -0.528 h -0.529 v -0.53 h -1.058 z"
           id="path7" /><path
           fill="#94826e"
           d="m 21.696,294.883 v 0.53 h 1.059 v 0.529 h 1.058 v 0.529 h 1.058 V 297 h 1.587 v -0.53 H 25.4 v -0.528 h -1.058 v -0.53 h -1.059 v -0.529 h -1.058 z"
           id="path8" /><path
           fill="#644528"
           d="m 15.875,290.65 v 0.53 h -0.53 v 1.587 h 0.53 v 0.529 h 1.588 v -0.53 h 0.529 v -1.587 h -0.53 v -0.529 h -1.058 z"
           id="path9" /><g
           id="g11"><path
             fill="#262218"
             d="m 16.404,291.708 v 1.059 h 1.058 v -1.059 h -0.529 z"
             id="path10" /><path
             fill="#e7ddc2"
             d="m 16.933,291.179 h 0.529 v 0.529 h -0.529 z"
             id="path11" /></g></g></g></g></svg>
