<svg xmlns="http://www.w3.org/2000/svg"
     xmlns:xlink="http://www.w3.org/1999/xlink" xml:space="preserve" width="1200" height="500">
     <style>
<![CDATA[
.palumba .eyes {
  animation: eyesMovement 10s ease-in-out infinite;
}

@keyframes eyesMovement {
  0% {
    transform: translate(0, 0);
  }

  2% {
    transform: translate(35px, 0);
  }

  50% {
    transform: translate(35px, 0);
  }

  52% {
    transform: translate(0, 0);
  }

  100% {
    transform: translate(0, 0);
  }
}

.palumba .peak {
     animation: peakMovement 10s ease-in-out infinite;
}

@keyframes peakMovement {
  0% {
    transform: translate(93px, -149px) scale(1, 1);
  }

  2% {
    transform: translate(1135px, -149px) scale(-1, 1);
  }

  50% {
    transform: translate(1135px, -149px) scale(-1, 1);
  }

  52% {
    transform: translate(93px, -149px) scale(1, 1);
  }

  100% {
    transform: translate(93px, -149px) scale(1, 1);
  }
}


]]>
     </style>
     <defs>
          <pattern xlink:href="#a" id="b"/>
          <pattern id="a" width="125" height="125" class="jmiguelrivas-github-io" patternUnits="userSpaceOnUse">
               <g fill="#d4e4eb">
                    <path d="M3.5 5.5H5V7H3.5zM8 78h1.5v1.5H8zM12 29h1.5v1.5H12zM13 141.5h1.5v1.5H13zM14 109.5h1.5v1.5H14zM18 230.5h1.5v1.5H18zM18.5 136H20v1.5h-1.5zM19 195.5h1.5v1.5H19zM19.5 236.5H21v1.5h-1.5zM20.5 48H22v1.5h-1.5zM28 164.5h1.5v1.5H28zM29.5 18H31v1.5h-1.5zM32 95.5h1.5V97H32zM34.5 56H36v1.5h-1.5zM38.5 57.5H40V59h-1.5zM39.5 102H41v1.5h-1.5zM41.5 136H43v1.5h-1.5zM43.5 224H45v1.5h-1.5zM47 115.5h1.5v1.5H47zM47 178h1.5v1.5H47zM51.5 11.5H53V13h-1.5zM54 74.5h1.5V76H54zM54.5 205.5H56v1.5h-1.5zM54.5 27.5H56V29h-1.5zM56 176h1.5v1.5H56zM56.5 49.5H58V51h-1.5zM58 160h1.5v1.5H58zM62.5 123.5H64v1.5h-1.5zM64.5 230H66v1.5h-1.5zM67.5 238H69v1.5h-1.5zM71 99.5h1.5v1.5H71zM74.5 70.5H76V72h-1.5zM79.5 165.5H81v1.5h-1.5zM81 180.5h1.5v1.5H81zM82 37.5h1.5V39H82zM82.5 13.5H84V15h-1.5zM83.5 145H85v1.5h-1.5zM84 213.5h1.5v1.5H84zM89.5 35H91v1.5h-1.5zM91.5 124H93v1.5h-1.5zM93 103.5h1.5v1.5H93zM99.5 159.5h1.5v1.5h-1.5zM99.5 222h1.5v1.5h-1.5zM101 52.5h1.5V54H101zM105 203h1.5v1.5H105zM108.5 97.5h1.5V99h-1.5zM109.5 185h1.5v1.5h-1.5zM112 126.5h1.5v1.5H112zM112 16h1.5v1.5H112zM115 72h1.5v1.5H115zM116 239.5h1.5v1.5H116zM120 215h1.5v1.5H120zM123 153h1.5v1.5H123zM124.5 55.5h1.5V57h-1.5zM125.5 172h1.5v1.5h-1.5zM134 107.5h1.5v1.5H134zM137.5 189.5h1.5v1.5h-1.5zM141.5 129.5h1.5v1.5h-1.5zM143 37h1.5v1.5H143zM145 211h1.5v1.5H145zM148 8.5h1.5V10H148zM152 134.5h1.5v1.5H152zM152.5 238h1.5v1.5h-1.5zM156 146.5h1.5v1.5H156zM157 183.5h1.5v1.5H157zM157 68.5h1.5V70H157zM159.5 101h1.5v1.5h-1.5zM160.5 220h1.5v1.5h-1.5zM167 164.5h1.5v1.5H167zM170 50.5h1.5V52H170zM173.5 140h1.5v1.5h-1.5zM174 208.5h1.5v1.5H174zM181.5 192h1.5v1.5h-1.5zM181.5 16h1.5v1.5h-1.5zM183 95h1.5v1.5H183zM185 116.5h1.5v1.5H185zM187 240h1.5v1.5H187zM187.5 186.5h1.5v1.5h-1.5zM201 62h1.5v1.5H201zM201 222h1.5v1.5H201zM201 39h1.5v1.5H201zM202 157.5h1.5v1.5H202zM204.5 199h1.5v1.5h-1.5zM205.5 171.5h1.5v1.5h-1.5zM206.5 110h1.5v1.5h-1.5zM209 201h1.5v1.5H209zM213.5 80h1.5v1.5h-1.5zM213.5 25.5h1.5V27h-1.5zM215 131.5h1.5v1.5H215zM216 105h1.5v1.5H216zM217.5 123.5h1.5v1.5h-1.5zM218 236h1.5v1.5H218zM218 10.5h1.5V12H218zM223.5 9.5h1.5V11h-1.5zM225 181h1.5v1.5H225zM226 136.5h1.5v1.5H226zM226.5 220.5h1.5v1.5h-1.5zM228.5 98.5h1.5v1.5h-1.5zM232 66h1.5v1.5H232zM235.5 207h1.5v1.5h-1.5zM236 151h1.5v1.5H236zM240 35h1.5v1.5H240zM241 240h1.5v1.5H241zM241.5 7h1.5v1.5h-1.5zM245.5 11.5h1.5V13h-1.5z"/>
               </g>
          </pattern>
          <clipPath id="c" clipPathUnits="userSpaceOnUse">
               <path fill="#ebebeb" d="M505.865 310.698h29.289v9.684h-29.289z"/>
          </clipPath>
          <g id="d">
               <path fill="#273d27" d="M733.422 589.894s-.466 18.722-1.197 20.918c-.732 2.196-.951 3.547-.951 3.547s1.743 1.312 3.258.815c1.516-.497 2.85.126 2.893-.499.043-.625-1.224-4.478-1.42-5.618-.197-1.14-.397-3.798-.192-6.081.205-2.283.418-10.304.203-12.39-.214-2.085-2.594-.692-2.594-.692z"/>
               <path fill="#235623" d="M734.632 598.127c-.817 2.318-8.43 7.616-8.43 7.616s4.88.106 7.996.104c3.115-.003 9.38-.157 9.38-.157s-7.8-4.662-8.946-7.563z"/>
               <path fill="#235623" d="M734.82 593.002c-.94 2.642-9.044 8.734-9.044 8.734s5.14-.023 8.723-.026c3.583-.003 8.835.236 8.835.236s-7.197-5.637-8.514-8.944z"/>
               <path fill="#ebebeb" d="M734.782 591.515c-.805 2.642-7.746 8.734-7.746 8.734s4.403-.023 7.471-.026c3.069-.003 7.566.236 7.566.236s-6.163-5.637-7.29-8.944z"/>
               <path fill="#235623" d="M734.219 589.743c-.81 2.318-8.359 7.616-8.359 7.616s4.84.107 7.928.104c3.089-.003 9.302-.157 9.302-.157s-7.736-4.662-8.871-7.563z"/>
               <path fill="#235623" d="M734.498 585.295c-.667 2.318-7.54 8.282-7.54 8.282s4.641-.56 7.186-.562c2.544-.003 7.712 1.363 7.712 1.363s-6.422-6.182-7.358-9.083z"/>
               <path fill="#ebebeb" d="M734.491 584.304c-.613 2.318-6.92 8.282-6.92 8.282s4.26-.56 6.594-.563c2.335-.003 7.078 1.364 7.078 1.364s-5.894-6.182-6.752-9.083z"/>
               <path fill="#235623" d="M734.312 577.475c-1.428 3.035-4.846 8.509-4.846 8.509s3.067-1.598 5.035-1.602c1.967-.004 5.03 1.487 5.03 1.487s-3.758-5.127-5.219-8.394z"/>
               <path fill="#235623" d="M734.626 579.677c-.516 2.764-6.42 9.832-6.42 9.832s4.263-1.121 6.23-1.125c1.968-.003 6.301 1.537 6.301 1.537s-5.387-6.784-6.11-10.244z"/>
               <path fill="#ebebeb" d="M734.35 577.38c-1.142 2.12-3.874 5.947-3.874 5.947s2.452-1.117 4.025-1.12c1.572-.003 4.021 1.04 4.021 1.04s-3.004-3.584-4.172-5.867z"/>
          </g>
     </defs>
     <rect width="100%" height="518.563" fill="#262730" class="sky"/>
     <rect width="200%" height="200%" fill="url(#a)" class="stars" rx="0" ry="0" style="fill:url(#b)">
          <animateTransform attributeName="transform" attributeType="XML" begin="-2s" dur="20s" from="-125,-125" repeatCount="indefinite" to="0,0" type="translate"/>
     </rect>
     <g class="mountain">
          <path fill="#40654d" d="M221.715 551.695c20.854-38.69 41.647-48.96 55.016-90.1 7.624-23.46 40.47-41.162 50.57-63.436 7.19-15.855 10.3-45.434 16.818-61.512.006-.015 43.132-23.306 47.812-27.32 9.63-8.258 2.667-33.589 14.003-43.357 19.327-16.653 6.042-14.803 25.529-30.929 19.622-16.238 20.322-31.645 39.178-48.77 10.275-9.332 20.64-23.192 35.624-23.165 6.75.012 13.916 3.677 20.25 5.793 13.16 4.398 30.135 13.753 22.984 30.236-2.585 5.957-9.314 16.946-7.188 23.926 1.01 3.317 3.212 7.14 4.747 10.212 2.044 4.09 3.465 8.34 6.416 11.293 5.739 5.747 15.792 15.032 23.583 17.067 31.63 8.261 66.68 3.47 93.046 26.921 13.323 11.851 24.928 24.957 30.522 41.71 2.604 7.8 3.222 16.1 6.75 23.76 7.685 16.686 17.656 32.363 32.849 42.59 3.288 2.212 11.8 26.414 13.155 29.464 5.798 13.051 22.46 36.111 32.89 45.51 11.812 10.644 21.514 16.374 35.11 21.847 2.03.818 4.34-.599 6.498-.966 11.03-1.875 25.423-6.443 31.284 1.38 6.464 8.627 8.496 34.03 10.14 48.852 1.645 14.798-651.603 16.446-647.586 8.994z"/>
          <path d="M495.574 765.111c-1.59-9.124.86-17.721 7.322-24.675 2.905-3.127 6.704-5.384 9.415-8.7 5.095-6.23 6.924-14.553 11.505-19.442 8.304-8.863 20.724-13.378 29.764-21.416 10.188-9.058 11.226-21.413 17.277-32.262 2.143-3.842 5.779-6.68 8.894-9.728 7.865-7.694 15.141-15.683 19.129-25.951 2.816-7.251 4.183-14.785 4.183-22.509 0-.597-.311-1.529.587-1.633 17.312-2.007 30.7 5.197 34.994 21.999 3.226 12.623-1.517 20.555 10.464 32.276 4.367 4.273 10.12 6.23 15.278 9.266 8.996 5.293 17.198 11.634 26.389 16.63 3.747 2.037 8.509 2.776 12.555 4.097 4.7 1.535 18.3 10.366 22.015 13.34 6.382 5.11 10.345 13.003 15.316 19.23 2.82 3.532 7.133 6.654 9.059 10.893 4.112 9.051 6.983 14.603 14.629 21.455 8.572 7.681 22.114 14.323 24.026 26.487.932 5.923.408 10.3-4.186 14.794-2.84 2.78-10.25 1.638-14.021 2.007-13.17 1.289-25.648-4.176-37.693-8.212-5.833-1.955-12.882-.572-18.948-1.42-9.018-1.26-17.483-3.003-26.408-5.208-5.169-1.277-8.853-1.22-12.889-4.376-4.533-3.545-8.423-5.091-11.53-11.17-1.13-2.21-2.677-3.895-3.66-6.137-2.592-5.922-7.787.742-14.113-1.932-2.98-1.26-6.833-1.648-9.936-2.558-.998-.292-5.299-2.258-6.21-1.534-1.13.897-3.543 2.746-4.212 4.702-8.05 3.858-2.23 5.387-7.792 13.25-2.593 3.394-8.75 4.448-12.56 5.616-23.678 7.256-47.261-1.823-70.472-5.608-2.012-.328-6.279 1.08-7.903 0-2.235-1.485-11.084-2.16-14.62-1.464-7.15 1.408-7.692 2.596-15.648-.107z" style="fill:#ebebeb;fill-opacity:1" transform="translate(-101.825 -330.397)"/>
     </g>
     <g class="palumba">
          <path fill="#9f6d4d" d="M619.159 265.602s.354 11.09-.164 11.578c-.518.49-2.635 1.32-3.535 1.32-.9 0-6.723-.125-7.62 1.078-.894 1.202-1.518 3.167-.398 3.452 1.12.285 9.986-.902 10.325-.474.339.427 1.29 1.792 2.77 1.72 1.479-.07 3.33-1.432 3.33-1.432s11.197.976 10.868.156c-.33-.82-1.962-3.454-3.102-3.714-1.14-.26-6.747-.749-7.292-1.519-.545-.77-.22-11.907-.22-11.907z"/>
          <path fill="#9f6d4d" d="M638.687 267.036s.354 11.09-.164 11.578c-.518.49-2.635 1.32-3.535 1.32-.9 0-6.723-.125-7.62 1.078-.894 1.202-1.518 3.167-.398 3.452 1.12.285 9.986-.902 10.325-.474.338.427 1.29 1.791 2.77 1.72 1.479-.07 3.33-1.432 3.33-1.432s11.197.976 10.868.156c-.33-.82-1.962-3.454-3.102-3.714-1.14-.26-6.747-.749-7.292-1.519-.545-.77-.22-11.907-.22-11.907z"/>
          <path fill="#656e7f" d="M613.515 255.705s2.182 14.135 6.306 15.072c4.123.938 11.35-5.23 11.778-10.346.426-5.116-18.084-4.726-18.084-4.726zm19.528 1.434s2.182 14.135 6.306 15.072c4.123.938 11.35-5.23 11.778-10.346.426-5.116-18.084-4.726-18.084-4.726z"/>
          <path fill="#2d3252" d="M673.805 254.013s22.455 13.647 27.15 13.218c4.697-.429 8.966-2.395 8.966-2.395s8.09-2.51 8.183-6.483c.093-3.973-17.2-11.016-21.676-11.444-4.478-.428-23.846-2.31-22.624 7.104z"/>
          <path fill="#72819c" d="M582.532 206.32s-2.218 8.114-1.525 16.103c.693 7.99 5.595 34.837 45.228 39.227 39.633 4.39 50.05-4.759 52.527-4.873 2.478-.115 12.814 1.962 15.324.227 2.51-1.735-32.175-34.506-47.958-44.706-6.354-4.107-21.79 3.342-33.422 2.522-11.633-.82-28.41-12.939-30.174-8.5z"/>
          <path fill="#454868" d="M581.47 208.645c1.407 9.133 19.44 12.807 27.193 13.848 7.752 1.04 38.705-6.55 38.616-10.76-.096-4.587-6.824-14.727-9.65-22.466-2.827-7.739-5.58-9.283-7.572-17.622-1.176-4.927-.647-20.504-14.675-20.354-14.028.151-15.33 9.618-17.834 19.438-2.506 9.82-6.902 14.455-6.902 14.455s-10.701 13.553-9.176 23.46z"/>
          <path fill="#848fa5" d="M620.65 197.771c-5.987 6.675-11.993 23.16.198 37.987 12.19 14.828 63.158 15.113 77.972 12.79 14.814-2.32-15.042-26.589-28.166-35.495-13.124-8.907-28.363-37.426-50.003-15.282z"/>
          <path fill="#2d3252" d="M694.825 232.878c-1.21 5.35-3.235 11.914-6.48 16.573 4.3-.185 7.93-.503 10.475-.902 7.536-1.18 3.505-8.043-3.996-15.67zm-14.527-12.735c-5.508 12.448-12.065 20.716-17.475 26.03a65.98 65.98 0 0 1-2.723 2.528 210.8 210.8 0 0 0 14.554.853c4.784-5.478 9.863-12.742 14.354-22.172a187.358 187.358 0 0 0-8.71-7.24zm-17.207-13.638c-7.011 15.22-15.405 24.603-22.02 30.232-3.815 3.246-6.896 5.181-8.875 6.258 4.09 1.573 8.834 2.812 13.89 3.772a69.974 69.974 0 0 0 2.077-1.698c7.295-6.208 16.133-16.128 23.57-31.273-.368-.256-.732-.508-1.08-.743-2.438-1.656-4.95-3.989-7.562-6.548z"/>
          <g clip-path="url(#c)" transform="translate(93.379 -149.704)">
               <g class="eyes">
                    <g transform="translate(963.074 135.65) scale(.90323)">
                         <circle cx="-492.237" cy="199.875" r="4.093" fill="#f5f5f5"/>
                         <circle cx="-492.237" cy="199.875" r="2.648" fill="#0a0026" stroke="#8b38a9" stroke-width=".907"/>
                    </g>
                    <g transform="translate(933.074 135.65) scale(.90323)">
                         <circle cx="-492.237" cy="199.875" r="4.093" fill="#f5f5f5"/>
                         <circle cx="-492.237" cy="199.875" r="2.648" fill="#0a0026" stroke="#8b38a9" stroke-width=".907"/>
                    </g>
               </g>
          </g>
          <g class="peak" transform="translate(93.379 -149.704)">
               <ellipse cx="-506.055" cy="317.618" fill="#ececec" rx="3.713" ry="2.403" transform="scale(-1 1)"/>
               <path fill="#a57e3c" d="M508.094 321.727c-.57 1.936-4.083.323-5.696 1.016-2.19.941-5.147 3.293-5.415 2.644-.27-.65.77-4.633 2.32-5.98 1.125-.977 4.043-2.212 5.912-2.046 1.49.133 3.276 1.079 2.879 4.366z"/>
          </g>
     </g>
     <g class="trees">
          <use x="-196" y="-38" class="tree" href="#d" transform="translate(-101.825 -330.397)"/>
          <use x="-156" y="-8" class="tree" href="#d" transform="translate(-101.825 -330.397)"/>
          <use x="-181" y="42" class="tree" href="#d" transform="translate(-101.825 -330.397)"/>
          <use x="-46" y="12" class="tree" href="#d" transform="translate(-101.825 -330.397)"/>
          <use x="-326" y="152" class="tree" href="#d" transform="translate(-101.825 -330.397)"/>
          <use x="-276" y="79" class="tree" href="#d" transform="translate(-101.825 -330.397)"/>
          <use x="-30" y="152" class="tree" href="#d" transform="translate(-101.825 -330.397)"/>
          <use y="82" class="tree" href="#d" transform="translate(-101.825 -330.397)"/>
          <use x="210" y="222" class="tree" href="#d" transform="translate(-101.825 -330.397)"/>
          <use x="74" y="242" class="tree" href="#d" transform="translate(-89.198 -353.546)"/>
          <use x="-159" y="132" class="tree" href="#d" transform="translate(-101.825 -330.397)"/>
          <use x="-226" y="102" class="tree" href="#d" transform="translate(-101.825 -330.397)"/>
          <use x="103" y="142" class="tree" href="#d" transform="translate(-101.825 -330.397)"/>
          <use x="-60" y="36" class="tree" href="#d" transform="translate(-101.825 -330.397)"/>
          <use x="54" y="62" class="tree" href="#d" transform="translate(-101.825 -330.397)"/>
          <use x="144" y="202" class="tree" href="#d" transform="translate(-101.825 -330.397)"/>
          <use x="-86" y="180" class="tree" href="#d" transform="translate(-101.825 -330.397)"/>
          <use x="-266" y="142" class="tree" href="#d" transform="translate(-101.825 -330.397)"/>
          <use x="-156" y="-88" class="tree" href="#d" transform="translate(-101.825 -330.397)"/>
          <use x="-6" y="2" class="tree" href="#d" transform="translate(-101.825 -330.397)"/>
          <use x="-116" y="-58" class="tree" href="#d" transform="translate(-101.825 -330.397)"/>
          <use x="14" y="52" class="tree" href="#d" transform="translate(-101.825 -330.397)"/>
          <use x="-366" y="222" class="tree" href="#d" transform="translate(-101.825 -330.397)"/>
          <use x="-336" y="212" class="tree" href="#d" transform="translate(-101.825 -330.397)"/>
          <use x="-146" y="245" class="tree" href="#d" transform="translate(-77.975 -356.352)"/>
          <use x="-86" y="-28" class="tree" href="#d" transform="translate(-101.825 -330.397)"/>
          <use x="44" y="92" class="tree" href="#d" transform="translate(-101.825 -330.397)"/>
          <use x="84" y="92" class="tree" href="#d" transform="translate(-101.825 -330.397)"/>
          <use x="-16" y="52" class="tree" href="#d" transform="translate(-101.825 -330.397)"/>
          <use x="-226" y="2" class="tree" href="#d" transform="translate(-101.825 -330.397)"/>
          <use x="-221" y="142" class="tree" href="#d" transform="translate(-101.825 -330.397)"/>
          <use x="-296" y="192" class="tree" href="#d" transform="translate(-101.825 -330.397)"/>
          <use x="-196" y="92" class="tree" href="#d" transform="translate(-101.825 -330.397)"/>
          <use x="-96" y="-88" class="tree" href="#d" transform="translate(-101.825 -330.397)"/>
          <use x="24" y="122" class="tree" href="#d" transform="translate(-101.825 -330.397)"/>
          <use x="7" y="176" class="tree" href="#d" transform="translate(-101.825 -330.397)"/>
          <use x="-46" y="92" class="tree" href="#d" transform="translate(-101.825 -330.397)"/>
          <use x="-106" y="52" class="tree" href="#d" transform="translate(-101.825 -330.397)"/>
          <use x="-146" y="82" class="tree" href="#d" transform="translate(-101.825 -330.397)"/>
          <use x="-116" y="112" class="tree" href="#d" transform="translate(-101.825 -330.397)"/>
          <use x="-56" y="142" class="tree" href="#d" transform="translate(-101.825 -330.397)"/>
          <use x="-136" y="162" class="tree" href="#d" transform="translate(-101.825 -330.397)"/>
          <use x="-186" y="142" class="tree" href="#d" transform="translate(-101.825 -330.397)"/>
          <use x="64" y="172" class="tree" href="#d" transform="translate(-101.825 -330.397)"/>
          <use x="-176" y="245" class="tree" href="#d" transform="translate(-103.228 -360.561)"/>
          <use x="-96" y="152" class="tree" href="#d" transform="translate(-101.825 -330.397)"/>
          <use x="-16" y="122" class="tree" href="#d" transform="translate(-101.825 -330.397)"/>
          <use x="164" y="242" class="tree" href="#d" transform="translate(-100.422 -345.83)"/>
          <use x="44" y="202" class="tree" href="#d" transform="translate(-101.825 -330.397)"/>
          <use x="119" y="172" class="tree" href="#d" transform="translate(-101.825 -330.397)"/>
          <use x="-236" y="243" class="tree" href="#d" transform="translate(-107.437 -364.069)"/>
          <use x="-207" y="168" class="tree" href="#d" transform="translate(-101.825 -330.397)"/>
          <use x="-26" y="240" class="tree" href="#d" transform="translate(-108.139 -352.845)"/>
          <use x="-84" y="82" class="tree" href="#d" transform="translate(-101.825 -330.397)"/>
          <use x="-128" y="42" class="tree" href="#d" transform="translate(-101.825 -330.397)"/>
          <use x="-296" y="122" class="tree" href="#d" transform="translate(-101.825 -330.397)"/>
          <use x="-136" y="2" class="tree" href="#d" transform="translate(-101.825 -330.397)"/>
          <use x="-204" y="12" class="tree" href="#d" transform="translate(-101.825 -330.397)"/>
          <use x="-174" y="-51" class="tree" href="#d" transform="translate(-101.825 -330.397)"/>
          <use x="-82" y="14" class="tree" href="#d" transform="translate(-101.825 -330.397)"/>
          <use x="34" y="12" class="tree" href="#d" transform="translate(-101.825 -330.397)"/>
          <use x="64" y="122" class="tree" href="#d" transform="translate(-101.825 -330.397)"/>
     </g>
</svg>